<?xml version="1.0" encoding="utf-8" ?><!-- created by svgstack.com | Attribution is required. --><svg xmlns="http://www.w3.org/2000/svg" xmlns:xlink="http://www.w3.org/1999/xlink" width="1024" height="1024"><path fill="#01598B" d="M503.838 51.7153C505.056 51.5899 506.321 51.6006 507.545 51.5662C526.029 51.0478 544.519 53.0055 562.842 55.1826Q567.455 55.7145 572.057 56.3393Q576.659 56.964 581.247 57.6813Q585.835 58.3986 590.408 59.2082Q594.981 60.0178 599.536 60.9193Q604.092 61.8208 608.628 62.8139Q613.165 63.807 617.68 64.8913Q622.196 65.9756 626.689 67.1506Q631.181 68.3257 635.65 69.591Q640.118 70.8563 644.56 72.2113Q649.001 73.5663 653.415 75.0106Q657.829 76.4548 662.212 77.9877Q666.596 79.5205 670.948 81.1413Q675.3 82.7622 679.618 84.4704Q683.936 86.1785 688.219 87.9733Q692.502 89.7682 696.749 91.6489Q700.995 93.5296 705.202 95.4955Q709.409 97.4613 713.576 99.5116Q717.743 101.562 721.867 103.696Q725.992 105.829 730.073 108.046Q734.154 110.262 738.189 112.56Q742.225 114.858 746.213 117.237Q750.201 119.616 754.141 122.075Q758.08 124.534 761.969 127.072Q765.859 129.609 769.696 132.225Q773.533 134.84 777.317 137.533Q781.101 140.225 784.83 142.993Q788.559 145.761 792.231 148.603Q795.904 151.446 799.518 154.362Q803.132 157.277 806.687 160.266Q810.242 163.254 813.736 166.313Q817.23 169.372 820.661 172.501Q824.093 175.63 827.461 178.827Q831.611 182.716 835.663 186.706Q839.716 190.696 843.668 194.786Q847.62 198.876 851.47 203.062Q855.319 207.248 859.064 211.529Q862.808 215.809 866.446 220.181Q870.083 224.553 873.611 229.014Q877.139 233.475 880.555 238.022Q883.971 242.569 887.274 247.199Q890.576 251.829 893.763 256.54Q896.949 261.25 900.018 266.039Q903.087 270.827 906.036 275.69Q908.986 280.552 911.813 285.487Q914.641 290.421 917.346 295.424Q920.05 300.427 922.63 305.496Q925.21 310.564 927.663 315.695Q930.116 320.826 932.442 326.016Q934.767 331.206 936.963 336.452Q939.159 341.699 941.224 346.998Q943.289 352.297 945.223 357.645Q947.156 362.994 948.956 368.389Q950.756 373.783 952.422 379.221Q954.088 384.659 955.618 390.137Q957.148 395.614 958.543 401.128Q959.937 406.641 961.194 412.188Q962.451 417.735 963.57 423.311Q964.689 428.887 965.67 434.489Q966.651 440.091 967.492 445.715Q968.333 451.34 969.035 456.984Q969.737 462.628 970.299 468.287Q970.86 473.947 971.281 479.618Q971.703 485.29 971.983 490.97Q972.263 496.65 972.403 502.336C975.27 620.49 929.873 741.474 848.005 827.108Q844.074 831.27 840.041 835.334Q836.008 839.397 831.875 843.359Q827.742 847.321 823.511 851.179Q819.281 855.037 814.956 858.789Q810.631 862.54 806.215 866.183Q801.798 869.826 797.292 873.358Q792.786 876.89 788.194 880.309Q783.601 883.728 778.925 887.031Q774.249 890.335 769.492 893.521Q764.736 896.708 759.901 899.775Q755.067 902.842 750.158 905.788Q745.249 908.734 740.268 911.556Q735.287 914.379 730.237 917.078Q725.188 919.776 720.073 922.348Q714.957 924.92 709.78 927.363Q704.603 929.807 699.366 932.122Q694.129 934.436 688.837 936.62Q683.544 938.803 678.199 940.854Q672.854 942.906 667.459 944.823Q662.065 946.741 656.624 948.524Q651.184 950.307 645.701 951.954Q640.217 953.601 634.695 955.112Q629.172 956.622 623.614 957.995Q618.056 959.367 612.465 960.601Q606.874 961.835 601.255 962.93Q595.635 964.024 589.99 964.979Q584.345 965.933 578.678 966.747Q573.011 967.561 567.325 968.234Q561.639 968.906 555.939 969.438Q550.238 969.969 544.526 970.358Q538.814 970.747 533.094 970.994Q527.374 971.241 521.65 971.346C499.065 971.447 476.439 970.699 454.016 967.82Q449.588 967.21 445.173 966.517Q440.757 965.823 436.356 965.046Q431.954 964.269 427.568 963.408Q423.182 962.548 418.813 961.605Q414.444 960.661 410.094 959.636Q405.744 958.61 401.414 957.502Q397.084 956.394 392.775 955.204Q388.467 954.014 384.182 952.742Q379.897 951.471 375.637 950.119Q371.377 948.766 367.143 947.334Q362.909 945.901 358.703 944.388Q354.497 942.876 350.321 941.284Q346.145 939.692 341.999 938.021Q337.853 936.35 333.74 934.601Q329.627 932.852 325.548 931.025Q321.469 929.198 317.425 927.294Q313.381 925.391 309.374 923.411Q305.366 921.431 301.397 919.375Q297.429 917.32 293.499 915.19Q289.57 913.059 285.682 910.855Q281.794 908.651 277.948 906.373Q274.102 904.095 270.3 901.745Q266.498 899.395 262.741 896.974Q258.985 894.552 255.274 892.06Q251.564 889.567 247.902 887.005Q244.24 884.443 240.627 881.812Q237.013 879.181 233.451 876.482Q229.888 873.783 226.377 871.016Q222.866 868.25 219.409 865.418Q215.951 862.586 212.547 859.689Q209.144 856.792 205.795 853.831Q202.447 850.87 199.156 847.846Q195.123 844.179 191.181 840.416Q187.238 836.652 183.388 832.794Q179.537 828.936 175.782 824.986Q172.026 821.035 168.368 816.995Q164.709 812.955 161.15 808.827Q157.59 804.699 154.132 800.486Q150.674 796.273 147.319 791.978Q143.964 787.682 140.714 783.306Q137.464 778.93 134.321 774.477Q131.178 770.024 128.145 765.495Q125.111 760.967 122.188 756.367Q119.265 751.766 116.454 747.096Q113.644 742.426 110.947 737.689Q108.251 732.952 105.67 728.151Q103.089 723.35 100.626 718.488Q98.1621 713.626 95.8172 708.706Q93.4724 703.785 91.2476 698.809Q89.0228 693.834 86.9194 688.805Q84.816 683.777 82.8352 678.699Q80.8543 673.621 78.9973 668.496Q77.1402 663.372 75.408 658.204Q73.6758 653.036 72.0695 647.827Q70.4632 642.619 68.9838 637.373Q67.5043 632.127 66.1525 626.847Q64.8007 621.566 63.5775 616.255Q62.3542 610.943 61.2601 605.604Q60.166 600.264 59.2018 594.899Q58.2376 589.535 57.4038 584.148Q56.5701 578.762 55.8672 573.357Q55.1643 567.952 54.5928 562.531Q54.0213 557.111 53.5814 551.678Q53.1415 546.245 52.8336 540.803Q52.5207 535.043 52.351 529.277Q52.1814 523.511 52.1552 517.742Q52.129 511.974 52.2461 506.206Q52.3633 500.439 52.6239 494.676Q52.8844 488.913 53.2881 483.159Q53.6919 477.404 54.2385 471.662Q54.7852 465.919 55.4744 460.192Q56.1637 454.464 56.9951 448.756Q57.8265 443.048 58.7996 437.362Q59.7727 431.676 60.8868 426.016Q62.001 420.356 63.2555 414.725Q64.51 409.095 65.9041 403.497Q67.2982 397.899 68.831 392.338Q70.3638 386.777 72.0345 381.255Q73.7051 375.734 75.5124 370.256Q77.3198 364.778 79.2628 359.346Q81.2058 353.915 83.2832 348.533Q85.3606 343.151 87.5712 337.823Q89.7818 332.495 92.1241 327.223Q94.4665 321.952 96.9392 316.74Q99.4119 311.528 102.013 306.379Q104.615 301.231 107.344 296.148Q110.072 291.066 112.926 286.053Q115.781 281.04 118.759 276.099Q121.737 271.159 124.836 266.294Q127.936 261.429 131.156 256.642Q134.376 251.856 137.714 247.151Q141.052 242.446 144.505 237.826Q147.959 233.205 151.527 228.672Q155.094 224.139 158.773 219.696Q162.453 215.253 166.241 210.903Q170.03 206.553 173.925 202.298C246.176 122.567 338.041 72.4428 444.724 56.7333C464.317 53.8481 484.072 52.6911 503.838 51.7153Z"/><path fill="#52A733" d="M770.427 694.618C775.939 686.891 771.919 684.82 773.751 677.26C775.612 669.578 786.236 671.525 791.466 667.53C796.117 663.978 795.106 654.746 800.347 652.213C801.761 651.529 803.126 652.159 804.492 652.637C808.09 658.287 809.679 663.657 808.254 670.398C806.741 677.558 785.74 712.831 780.69 719.219C779.275 721.008 777.691 722.429 775.739 723.609C771.922 725.917 767.421 726.821 763.047 725.778C761.74 725.466 760.626 725.046 759.861 723.857C758.129 721.168 758.983 716.735 759.838 713.897C762.019 706.659 767.552 701.395 770.427 694.618Z"/><path fill="#89AD81" d="M752.663 139.682C767.233 145.984 815.889 187.082 827.034 200.649C814.058 200.251 804.328 202.07 792.592 207.661L792.061 207.828C789.803 205.556 787.917 202.386 785.908 199.839C780.282 192.709 774.648 185.47 768.7 178.611Q761.015 169.779 752.755 161.483C748.498 157.209 743.815 153.065 740.08 148.327C745.724 147.029 748.744 143.643 752.663 139.682Z"/><path fill="#52A733" d="M827.034 200.649C838.007 210.968 847.829 222.395 857.431 233.981Q861.295 238.62 865.033 243.361Q868.77 248.103 872.378 252.944Q875.986 257.785 879.461 262.721Q882.937 267.658 886.277 272.687Q889.618 277.716 892.821 282.833Q896.025 287.951 899.088 293.153Q902.152 298.355 905.074 303.639Q907.996 308.922 910.774 314.282Q913.552 319.643 916.184 325.076Q918.816 330.51 921.3 336.013Q923.784 341.515 926.118 347.083Q928.452 352.651 930.635 358.28Q932.817 363.909 934.847 369.595Q936.877 375.281 938.752 381.02Q940.627 386.759 942.346 392.547Q944.065 398.334 945.627 404.166C949.695 418.812 954.819 435.275 955.224 450.533C955.473 459.913 949.704 466.128 947.752 474.851C945.169 486.398 951.778 503.681 949.3 517.291C948.974 519.084 948.462 521.593 946.979 522.841C946.004 523.661 945.251 523.516 944.085 523.465C940.348 521.561 938.602 516.484 937.353 512.687C934.857 505.095 934.173 497.066 932.333 489.318C928.756 474.257 920.288 445.469 910.916 433.338C908.847 430.659 906.461 428.753 903.442 427.238C898.098 424.554 892.204 423.03 886.716 420.669C880.287 417.903 874.049 413.755 867.986 410.237L867.616 409.722C867.433 390.067 862.718 369.661 858.816 350.457C858.399 342.576 855.24 334.107 853.026 326.528C840.275 282.879 819.602 244.077 792.592 207.661C804.328 202.07 814.058 200.251 827.034 200.649Z"/><path fill="#0075BC" d="M321.403 768.675C331.35 769.977 340.678 771.237 350.637 768.988C374.405 763.62 384.768 746.749 397.108 727.534C408.364 710.006 424.006 692.965 445.273 688.524C469.041 683.56 487.659 703.311 505.842 714.912C532.293 731.788 553.471 732.287 582.736 723.362C591.119 720.805 599.529 717.579 608.092 715.713L608.791 715.563C612.065 731.443 611.269 748.69 617.992 763.648C622.828 775.837 628.897 787.675 641.502 793.184L641.979 793.388C634.18 800.166 619.967 804.111 610.203 807.79C550.21 830.392 493.583 839.452 429.52 834.937Q416.897 834.069 404.345 832.482Q391.793 830.896 379.351 828.596Q366.91 826.296 354.62 823.289Q342.33 820.283 330.231 816.581C321.143 813.89 312.048 811.322 303.229 807.824L306.002 804.216C304.742 801.898 303.2 798.848 302.665 796.275C302.347 794.745 302.402 792.991 303.41 791.71C305.433 789.138 310.757 789.514 313.725 789.002C316.701 788.488 319.511 787.293 321.171 784.642C323.957 780.194 322.477 773.497 321.403 768.675Z"/><path fill="#0097D9" d="M163.033 719.191Q160.139 716.829 157.338 714.357C121.772 682.626 94.2269 643.325 71.7629 601.583C67.4368 593.545 62.2968 585.407 59.4624 576.698C57.0977 569.433 56.4217 561.359 56.0225 553.769C50.9454 457.217 67.73 373.683 116.29 289.525C132.295 261.789 150.968 234.899 172.41 211.066C198.296 182.295 223.275 162.104 254.829 139.946C326.166 89.8508 392.932 60.7482 481.182 56.1049C563.015 51.7991 637.052 69.4965 703.984 118.208C716.525 127.335 727.845 137.367 739.357 147.724L740.08 148.327C743.815 153.065 748.498 157.209 752.755 161.483Q761.015 169.779 768.7 178.611C774.648 185.47 780.282 192.709 785.908 199.839C787.917 202.386 789.803 205.556 792.061 207.828L792.592 207.661C819.602 244.077 840.275 282.879 853.026 326.528C855.24 334.107 858.399 342.576 858.816 350.457C862.718 369.661 867.433 390.067 867.616 409.722L867.986 410.237C868.02 433.467 868.1 456.795 865.649 479.923Q865.136 484.668 864.509 489.399Q863.882 494.13 863.142 498.844Q862.401 503.559 861.549 508.254Q860.696 512.95 859.731 517.624Q858.766 522.297 857.689 526.947Q856.612 531.596 855.424 536.218Q854.237 540.84 852.938 545.433Q851.64 550.025 850.232 554.585Q848.824 559.145 847.308 563.67Q845.791 568.195 844.167 572.682Q842.542 577.169 840.81 581.616Q839.079 586.063 837.241 590.468Q835.403 594.872 833.461 599.231Q831.518 603.59 829.471 607.901Q827.425 612.213 825.276 616.474Q823.127 620.735 820.876 624.943C815.827 634.383 810.704 643.895 804.492 652.637C803.126 652.159 801.761 651.529 800.347 652.213C795.106 654.746 796.117 663.978 791.466 667.53C786.236 671.525 775.612 669.578 773.751 677.26C771.919 684.82 775.939 686.891 770.427 694.618C763.633 698.745 757.822 706.9 752.449 712.758Q744.944 720.97 737.009 728.769C724.891 740.681 711.549 751.16 697.893 761.228C694.024 764.08 688.979 769.334 684.103 769.929C675.771 780.113 667.238 792.603 653.017 794.149C649.24 794.56 645.701 793.936 641.979 793.388L641.502 793.184C628.897 787.675 622.828 775.837 617.992 763.648C611.269 748.69 612.065 731.443 608.791 715.563L608.092 715.713C599.529 717.579 591.119 720.805 582.736 723.362C553.471 732.287 532.293 731.788 505.842 714.912C487.659 703.311 469.041 683.56 445.273 688.524C424.006 692.965 408.364 710.006 397.108 727.534C384.768 746.749 374.405 763.62 350.637 768.988C340.678 771.237 331.35 769.977 321.403 768.675C322.477 773.497 323.957 780.194 321.171 784.642C319.511 787.293 316.701 788.488 313.725 789.002C310.757 789.514 305.433 789.138 303.41 791.71C302.402 792.991 302.347 794.745 302.665 796.275C303.2 798.848 304.742 801.898 306.002 804.216L303.229 807.824C298.944 809.332 295.18 808.102 290.988 806.993C294.853 826.767 304.154 844.021 317.873 858.759C322.769 864.018 328.333 868.834 332.913 874.359C334.795 876.629 337.64 880.222 336.882 883.407C336.568 884.727 336.212 884.927 335.178 885.67C332.234 886.19 329.594 885.193 326.964 883.906C319.944 880.47 313.884 875.685 307.898 870.733C282.232 849.504 263.583 821.732 249.772 791.686C247.798 787.391 245.469 783.07 243.907 778.611L242.937 778.856C229.353 773.954 172.654 730.903 163.033 719.191Z"/><path fill="#A5D78E" d="M168.078 412.238C169.507 412.429 170.672 412.816 171.863 413.634C173.873 415.014 175.003 416.982 175.368 419.373C176.147 424.465 173.943 428.623 170.947 432.485C169.168 432.612 167.607 432.258 166.294 431.004C164.512 429.303 163.975 426.565 163.938 424.2C163.866 419.493 164.868 415.693 168.078 412.238Z"/><path fill="#A5D78E" d="M188.911 428.498Q189.83 428.475 190.75 428.489C193.852 428.523 196.617 429.18 198.78 431.575C199.936 432.854 200.496 434.342 200.398 436.071C200.218 439.273 197.881 441.407 195.587 443.341C194.405 443.49 193.193 443.587 192.004 443.424C189.697 443.108 187.357 441.667 186.018 439.769Q185.798 439.457 185.61 439.125Q185.422 438.793 185.267 438.444Q185.113 438.094 184.995 437.732Q184.876 437.369 184.794 436.996Q184.712 436.623 184.667 436.244Q184.622 435.865 184.616 435.483Q184.609 435.101 184.64 434.721Q184.671 434.34 184.74 433.965C185.21 431.385 186.88 429.954 188.911 428.498Z"/><path fill="#A5D78E" d="M148.993 404.509C150.453 404.459 152 404.34 153.45 404.55C155.585 404.86 157.714 406.206 158.878 408.029C159.92 409.661 160.018 411.608 159.472 413.431C158.46 416.814 155.868 418.531 152.971 420.228C151.763 420.431 150.523 420.654 149.294 420.599C147.127 420.501 145.049 419.819 143.674 418.059C142.463 416.509 142.372 414.262 142.752 412.418C143.542 408.582 145.882 406.618 148.993 404.509Z"/><path fill="#A5D78E" d="M316.313 241.538C318.878 241.457 321.456 241.747 323.81 242.855C325.293 243.553 326.456 244.73 326.976 246.305C327.796 248.786 327.005 251.635 325.785 253.846C322.981 258.925 318.416 261.106 313.073 262.502C311.134 262.554 309.331 262.475 307.434 262.028C305.346 261.536 303.136 260.602 302.17 258.536C301.237 256.542 301.774 254.175 302.662 252.271C305.322 246.563 310.689 243.618 316.313 241.538Z"/><path fill="#A5D78E" d="M272.178 258.07C274.696 257.763 277.692 258.14 279.951 259.364C281.242 260.065 282.106 261.213 282.479 262.628C283.248 265.545 282.081 269.045 280.628 271.563C277.308 277.313 272.189 279.612 266.075 281.241C263.429 281.157 260.431 280.742 258.092 279.43C256.579 278.582 255.436 277.321 254.996 275.618C254.347 273.102 255.415 270.295 256.72 268.173C260.207 262.505 265.883 259.46 272.178 258.07Z"/><path fill="#FEFEFE" d="M495.184 145.582C500.109 145.189 505.568 145.505 509.768 148.359C512.307 150.086 514.249 152.716 514.752 155.783C515.259 158.865 514.329 161.948 512.438 164.403C508.747 169.197 502.785 170.609 497.126 171.503C491.866 171.795 486.501 171.55 481.694 169.132C479.043 167.797 476.63 165.705 475.782 162.766C475.069 160.296 475.589 157.643 476.875 155.454C480.617 149.08 488.519 147.159 495.184 145.582Z"/><path fill="#A5D78E" d="M535.65 194.098C539.167 193.713 543.205 193.324 546.278 195.461C550.116 198.131 555.113 213.65 555.996 218.493C557.094 224.507 556.963 230.886 553.197 236.006C550.345 239.882 545.721 242.455 540.963 243.056C538.973 243.307 536.885 243.187 535.282 241.846C528.792 236.419 537.482 220.673 536.249 212.118L536.157 211.519C535.543 209.764 535.18 208.305 533.661 207.197L532.462 207.553C528.686 211.986 527.835 220.835 525.751 226.382C524.31 230.218 521.718 235.906 517.73 237.522C516.217 238.135 514.664 237.971 513.205 237.317C512.022 236.786 511.306 235.977 510.855 234.785C509.033 229.968 511.406 224.494 513.485 220.119C518.32 209.945 524.397 198.108 535.65 194.098Z"/><path fill="#A5D78E" d="M320.433 117.563L321.488 117.828C322.944 121.115 321.689 125.184 322.765 128.548C324.477 133.906 330.238 139.448 330.298 145.14C330.3 145.314 330.294 145.489 330.278 145.662C330.083 147.786 328.831 149.653 327.311 151.069C323.621 154.506 318.265 155.725 314.353 158.931C309.213 163.144 305.308 169.129 300.327 173.642C297.062 176.599 292.487 180.334 287.816 179.891C285.909 179.71 284.077 178.664 282.859 177.199C280.845 174.776 281.025 171.837 281.221 168.876C282.78 148.375 291.861 155.466 300.908 146.642C302.578 145.013 303.959 143.129 303.889 140.69C303.851 139.331 303.356 138.032 302.194 137.248C298.798 134.956 292.012 139.144 288.289 139.751C286.59 140.028 285.489 139.784 284.088 138.736C283.996 138.064 283.836 137.813 284.182 137.177C289.075 128.171 311.193 120.286 320.433 117.563Z"/><path fill="#FEFEFE" d="M470.789 73.7125C475.428 73.1595 480.483 73.304 485.169 73.2729C506.735 73.1299 527.699 75.401 548.626 80.5924C534.861 83.1661 510.486 84.9569 498.36 90.6001C506.107 95.5573 515.624 95.4629 524.001 100.931C519.502 101.862 514.764 102.711 510.537 104.555C495.829 110.972 502.11 124.254 490.483 130.848C483.711 134.69 475.677 136.069 468.167 137.76C443.783 143.248 423.069 148.122 403.016 164.355C396.833 169.351 392.484 175.645 387.182 181.481C384.573 184.353 380.832 187.7 376.727 187.727C373.65 187.746 371.439 186.03 369.297 183.999C345.831 161.752 388.576 132.239 387.768 115.696C387.664 113.581 386.75 111.802 385.143 110.435C376.932 103.449 358.3 105.006 348.221 105.698C388.66 84.1932 425.399 76.7375 470.789 73.7125Z"/><path fill="#A5D78E" d="M74.2773 448.436C75.1802 441.606 76.1556 434.767 76.8621 427.913C77.7803 419.005 78.3003 410.195 80.2665 401.421C84.3272 383.301 91.0754 365.493 97.7942 348.22C122.984 283.462 147.399 250.992 195.999 202.692C210.986 187.798 226.291 172.946 243.085 160.084C247.637 156.598 261.118 146.556 266.961 147.459C267.466 147.537 267.695 147.725 268.09 147.974C268.623 149.127 268.655 150.013 268.265 151.214C264.039 164.235 219.787 173.797 208.094 201.779C207.072 204.223 205.615 207.894 207.002 210.444C207.572 211.492 208.79 212.352 209.968 212.552C213.993 213.235 219.96 208.03 223.248 211.364C224.382 212.513 224.742 213.828 224.637 215.395C224.107 223.288 210.559 238.965 214.565 244.857L215.429 245.051C221.756 240.765 224.463 232.109 229.366 226.399C235.48 219.28 244.502 215.06 249.996 207.14C254.945 200.007 259.233 176.288 271.709 179.031C282.327 181.364 279.319 198.365 294.392 189.353C297.329 187.598 300.06 185.779 303.272 184.551C306.526 185.674 309.146 186.575 310.834 189.846C313.736 195.468 311.118 202.985 312.894 209.072C314.593 214.892 322.555 218.993 320.068 225.753C318.092 231.124 311.711 235.316 306.609 237.46C302.863 239.035 298.872 240.525 294.942 241.544C285.705 243.94 274.208 244.908 266.488 250.965C260.342 255.786 258.008 264.085 251.39 268.357C247.076 271.141 238.959 270.267 236.75 275.731C232.917 285.211 248.906 290.641 225.745 301.602C219.812 304.41 213.443 306.704 208.13 310.624C195.905 319.641 192.28 336.287 180.352 345.552C174.859 349.819 163.773 347.815 161.259 354.199C157.976 362.535 166.452 377.178 155.689 382.56C154.417 383.196 154.082 383.155 152.749 382.924C147.637 379.066 149.877 359.251 142.842 360.205C137.091 360.985 132.031 368.341 127.548 371.675C119.995 377.29 107.366 374.208 101.857 382.68C98.5158 387.819 97.6416 395.318 95.623 401.107C93.3587 407.6 89.5074 413.782 87.7268 420.393C87.0168 423.029 86.5744 425.913 87.1892 428.614C87.6218 430.515 88.6092 432.318 90.2905 433.381C91.6939 434.268 93.4306 434.427 95.0243 434.047C98.5395 433.208 101.5 429.967 103.233 426.944C105.708 422.628 109.6 411.201 114.455 409.579C115.79 409.133 116.101 409.334 117.314 409.866C119.468 412.471 119.513 415.736 119.193 418.979C118.109 429.95 110.871 444.573 107.93 456.353C112.913 453.629 119.744 449.189 125.624 450.993C127.633 451.609 129.108 453.006 130.037 454.866C134.359 463.519 130.257 476.731 130.504 486.193C136.481 492.322 145.575 499.925 154.675 499.814C158.677 499.765 161.959 497.889 164.602 494.977C170.101 488.919 173.43 476.442 182.955 475.776C187.805 475.437 192.302 478.892 195.638 482.043C197.457 483.76 199.113 485.558 200.705 487.485C208.358 484.722 220.345 478.868 228.419 482.691C233.343 485.024 235.752 497.794 242.316 502.74C246.778 506.101 252.369 507.524 257.629 509.112C272.998 513.751 293.231 518.292 298.689 535.664C301.091 543.308 300.262 554.286 308.358 558.62C312.006 560.573 316.43 561.856 319.722 564.329C325.043 568.327 327.956 574.078 334.041 577.317C350.453 586.049 375.511 581.736 382.59 603.553C385.2 611.598 383.136 619.584 379.279 626.793C373.878 636.887 367.118 646.469 364.771 657.883C361.756 672.543 371.191 692.003 363.921 705.039C356.809 717.791 325.418 718.391 329.474 730.711C331.387 736.522 337.214 738.001 339.679 746.396C335.881 761.16 327.686 758.838 321.403 768.675C322.477 773.497 323.957 780.194 321.171 784.642C319.511 787.293 316.701 788.488 313.725 789.002C310.757 789.514 305.433 789.138 303.41 791.71C302.402 792.991 302.347 794.745 302.665 796.275C303.2 798.848 304.742 801.898 306.002 804.216L303.229 807.824C298.944 809.332 295.18 808.102 290.988 806.993C294.853 826.767 304.154 844.021 317.873 858.759C322.769 864.018 328.333 868.834 332.913 874.359C334.795 876.629 337.64 880.222 336.882 883.407C336.568 884.727 336.212 884.927 335.178 885.67C332.234 886.19 329.594 885.193 326.964 883.906C319.944 880.47 313.884 875.685 307.898 870.733C282.232 849.504 263.583 821.732 249.772 791.686C247.798 787.391 245.469 783.07 243.907 778.611L242.937 778.856C229.353 773.954 172.654 730.903 163.033 719.191C171.931 718.861 180.728 718.55 188.383 713.468C196.727 707.928 204.184 696.194 204.068 685.941C204.032 682.733 202.666 678.34 203.432 675.312C203.505 675.024 203.594 674.739 203.674 674.453C173.483 649.339 153.21 625.357 142.98 586.136C141.843 580.458 141.649 575.416 142.577 569.68C144.95 555.015 160.535 523.54 144.553 512.314C138.497 508.06 130.598 507.752 124.858 502.686C116.593 495.39 114.348 480.012 106.081 470.69C97.0058 460.456 85.1187 456.03 74.2773 448.436Z"/><path fill="#52A733" d="M277.149 796.715C286.848 800.91 295.3 803.994 306.002 804.216L303.229 807.824C298.944 809.332 295.18 808.102 290.988 806.993C286.988 803.438 279.101 802.197 277.149 796.715Z"/><path fill="#61C64C" d="M142.98 586.136C153.965 570.583 173.98 544.174 193.346 540.641C199.759 539.472 205.741 541.7 210.871 545.424C229.592 559.013 232.918 584.41 249.545 600.003C266.442 615.85 289.961 612.98 301.099 636.905C303.146 641.3 305 646.218 305.7 651.034C308.895 672.989 285.756 687.259 286.497 708.616C287.143 727.216 310.832 750.986 297.173 768.611Q295.645 770.56 293.837 772.252Q292.028 773.943 289.981 775.337C284.999 778.778 272.252 784.041 273.119 791.319C273.357 793.313 274.923 795.363 276.577 796.398C276.762 796.514 276.959 796.61 277.149 796.715C279.101 802.197 286.988 803.438 290.988 806.993C294.853 826.767 304.154 844.021 317.873 858.759C322.769 864.018 328.333 868.834 332.913 874.359C334.795 876.629 337.64 880.222 336.882 883.407C336.568 884.727 336.212 884.927 335.178 885.67C332.234 886.19 329.594 885.193 326.964 883.906C319.944 880.47 313.884 875.685 307.898 870.733C282.232 849.504 263.583 821.732 249.772 791.686C247.798 787.391 245.469 783.07 243.907 778.611L242.937 778.856C229.353 773.954 172.654 730.903 163.033 719.191C171.931 718.861 180.728 718.55 188.383 713.468C196.727 707.928 204.184 696.194 204.068 685.941C204.032 682.733 202.666 678.34 203.432 675.312C203.505 675.024 203.594 674.739 203.674 674.453C173.483 649.339 153.21 625.357 142.98 586.136Z"/><path fill="#0075BC" d="M203.674 674.453C208.366 677.687 213.239 680.89 216.815 685.407C222.971 693.184 224.898 707.111 226.668 716.733C229.18 730.386 232.104 743.31 236.299 756.583C238.635 763.977 241.731 771.183 243.907 778.611L242.937 778.856C229.353 773.954 172.654 730.903 163.033 719.191C171.931 718.861 180.728 718.55 188.383 713.468C196.727 707.928 204.184 696.194 204.068 685.941C204.032 682.733 202.666 678.34 203.432 675.312C203.505 675.024 203.594 674.739 203.674 674.453Z"/><path fill="#A5D78E" d="M636.916 189.259C637.656 192.986 638.236 196.718 636.427 200.221C634.642 203.68 631.889 207.095 627.995 208.19C618.035 210.991 615.477 200.926 608.535 198.835C602.683 197.071 596.328 204.216 587.434 199.104C584.04 197.153 581.727 193.761 580.707 190.021C579.828 186.803 580.067 183.492 581.099 180.342C585.532 166.811 601.272 165.356 610.818 156.894C615.863 152.422 618.062 147.054 621.242 141.318C624.881 134.758 630.472 130.503 637.641 128.471C655.624 123.373 684.428 131.306 700.462 140.482C702.689 141.757 705.591 143.67 706.049 146.432C706.825 151.113 700.81 154.042 698.799 157.545C698.097 158.769 698.281 159.356 698.692 160.633C703.338 165.127 715.231 162.476 721.416 162.363C724.317 162.309 727.194 162.729 730.061 163.126C729.92 159.872 729.24 155.508 730.821 152.527C732.536 149.29 736.122 148.592 739.357 147.724L740.08 148.327C743.815 153.065 748.498 157.209 752.755 161.483Q761.015 169.779 768.7 178.611C774.648 185.47 780.282 192.709 785.908 199.839C787.917 202.386 789.803 205.556 792.061 207.828L792.592 207.661C819.602 244.077 840.275 282.879 853.026 326.528C855.24 334.107 858.399 342.576 858.816 350.457C862.718 369.661 867.433 390.067 867.616 409.722C863.654 407.334 859.603 404.502 855.318 402.733C847.055 399.323 836.057 398.715 829.688 391.866C824.762 386.569 822.444 366.102 812.42 368.911C809.399 369.758 807.238 372.327 805.799 375.001C803.352 379.549 802.637 385.225 804.191 390.174C806.669 398.068 814.398 408.427 821.81 412.274C830.834 416.958 839.645 408.018 847.018 416.904C843.963 424.578 839.534 428.557 832.039 431.795C817.759 437.963 802.38 439.393 787.783 433.468C776.626 428.939 768.37 424.118 756.144 421.868L755.624 421.906C749.966 422.078 743.307 421.618 737.859 423.166L737.422 422.791C719.723 429.048 704.798 449.008 688.077 451.829C666.096 455.536 642.717 436 620.695 434.121C610.792 433.275 601.34 434.67 592.008 438.035C574.418 444.379 562.982 453.925 543.819 444.838C539.261 442.677 534.849 439.963 530.727 437.063C521.681 430.699 507.556 417.344 495.498 421.173C490.792 422.668 487.507 426.415 485.412 430.738C477.856 446.337 482.198 466.91 466.124 477.855C460.493 481.689 453.66 483.019 448.075 486.538C445.33 470.613 446.944 454.476 450.345 438.784C452.455 429.048 455.431 419.485 460.567 410.887C467.623 399.075 478.977 391.006 487.337 380.272C492.468 373.683 495.619 365.592 500.928 359.273Q502.546 357.316 504.454 355.64Q506.362 353.963 508.512 352.611C517.415 346.986 527.867 344.962 537.687 341.6C554.958 335.688 575.141 323.774 593.979 328.497C611.086 332.786 604.862 345.361 610.114 353.393C612.593 357.184 618.035 357.168 621.839 358.964C629.314 362.492 632.861 372.181 641.59 373.622C651.803 375.309 652.4 360.588 659.27 356.095C666.587 351.308 679.86 358.094 687.11 360.714Q692.753 362.776 698.597 364.167C710.421 366.97 723.867 367.813 734.554 360.966C737.97 358.777 742.477 354.879 743.251 350.656C743.608 348.705 742.933 346.9 741.654 345.427C732.093 334.42 706.587 336.741 696.098 324.863C691.444 319.594 692.217 311.879 688.26 306.528C687.008 304.835 685.265 304.343 683.262 304.079C680.767 303.751 678.116 304.299 676.131 305.899C670.72 310.261 675.125 315.413 674.401 320.67C674.106 322.81 672.724 324.535 670.929 325.663C668.102 327.438 663.949 327.66 660.771 326.869C650.96 324.425 653.606 310.182 648.948 303.352C646.138 299.231 635.156 287.784 630.521 286.868C629.212 287.45 629.064 287.518 628.29 288.713C627.855 293.954 634.018 299.55 635.311 304.82C635.77 306.688 635.743 308.635 634.688 310.305C633.506 312.176 631.176 313.468 629.058 313.945C621.261 315.701 612.015 301.947 605.746 297.982C598.461 293.374 590.18 293.472 582.1 295.399C571.745 297.867 555.635 303.898 549.189 312.933C547.184 315.742 546.36 319.311 544.483 322.208C540.828 327.851 532.414 330.876 526.072 332.154C520.279 333.32 513.939 332.662 508.984 329.243C504.897 326.424 502.383 322.034 501.551 317.182C500.394 310.423 501.798 302.792 505.809 297.187C515.083 284.228 531.275 288.673 544.607 286.249C546.177 285.963 546.977 285.47 547.857 284.166C548.261 278.848 541.995 273.872 540.682 268.753C540.239 267.023 540.867 265.623 541.634 264.098C547.742 251.951 565.371 250.968 574.631 242.288C578.153 238.987 579.095 234.02 581.554 230.007C591.311 214.084 627.313 229.229 643.097 224.816C652.847 222.091 652.952 212.555 657.372 205.263C661.11 199.095 665.908 199.303 672.122 197.769C674.203 197.256 676.367 196.827 677.52 194.9C675.266 189.775 660.164 188.441 655.08 186.356L654.324 186.04L654.087 185.476C650.263 176.098 659.265 158.431 652.593 155.373C651.338 154.798 650.096 154.833 648.825 155.353C644.001 157.327 640.561 165.609 638.837 170.226Q638.412 171.358 638.062 172.516Q637.711 173.673 637.436 174.851Q637.16 176.029 636.961 177.222Q636.763 178.415 636.641 179.618Q636.52 180.821 636.476 182.03Q636.433 183.238 636.467 184.447Q636.501 185.656 636.614 186.86Q636.726 188.065 636.916 189.259Z"/><path fill="#0097D9" d="M737.422 422.791C734.963 416.595 732.439 410.027 731.917 403.323C731.678 400.258 731.583 396.665 733.666 394.205C734.439 393.973 734.823 393.716 735.639 393.94C742.94 395.939 751.883 415.277 755.624 421.906C749.966 422.078 743.307 421.618 737.859 423.166L737.422 422.791Z"/><path fill="#61C64C" d="M792.061 207.828L792.592 207.661C819.602 244.077 840.275 282.879 853.026 326.528C855.24 334.107 858.399 342.576 858.816 350.457C849.169 353.488 840.056 356.291 830.012 353.135C813.803 348.041 805.217 326.168 792.545 315.329C773.931 299.406 751.097 300.115 737.934 274.614C734.661 268.274 732.371 260.516 734.773 253.511C739.261 240.423 759.347 242.911 769.177 236.325C780.703 228.603 772.215 217.752 792.061 207.828Z"/><path fill="#52A733" d="M847.018 416.904C839.645 408.018 830.834 416.958 821.81 412.274C814.398 408.427 806.669 398.068 804.191 390.174C802.637 385.225 803.352 379.549 805.799 375.001C807.238 372.327 809.399 369.758 812.42 368.911C822.444 366.102 824.762 386.569 829.688 391.866C836.057 398.715 847.055 399.323 855.318 402.733C859.603 404.502 863.654 407.334 867.616 409.722L867.986 410.237C868.02 433.467 868.1 456.795 865.649 479.923Q865.136 484.668 864.509 489.399Q863.882 494.13 863.142 498.844Q862.401 503.559 861.549 508.254Q860.696 512.95 859.731 517.624Q858.766 522.297 857.689 526.947Q856.612 531.596 855.424 536.218Q854.237 540.84 852.938 545.433Q851.64 550.025 850.232 554.585Q848.824 559.145 847.308 563.67Q845.791 568.195 844.167 572.682Q842.542 577.169 840.81 581.616Q839.079 586.063 837.241 590.468Q835.403 594.872 833.461 599.231Q831.518 603.59 829.471 607.901Q827.425 612.213 825.276 616.474Q823.127 620.735 820.876 624.943C815.827 634.383 810.704 643.895 804.492 652.637C803.126 652.159 801.761 651.529 800.347 652.213C795.106 654.746 796.117 663.978 791.466 667.53C786.236 671.525 775.612 669.578 773.751 677.26C771.919 684.82 775.939 686.891 770.427 694.618C763.633 698.745 757.822 706.9 752.449 712.758Q744.944 720.97 737.009 728.769C724.891 740.681 711.549 751.16 697.893 761.228C694.024 764.08 688.979 769.334 684.103 769.929C675.771 780.113 667.238 792.603 653.017 794.149C649.24 794.56 645.701 793.936 641.979 793.388L641.502 793.184C628.897 787.675 622.828 775.837 617.992 763.648C611.269 748.69 612.065 731.443 608.791 715.563C606.104 707.799 601.148 700.751 599.499 692.646C595.321 672.107 615.95 658.825 614.02 639.202C612.529 624.039 598.166 614.855 591.659 602.052C584.257 587.489 591.477 572.651 588.184 557.684C586.975 552.191 584.031 547.974 579.226 545.034C575.652 542.847 571.38 541.469 567.311 540.539C550.836 536.773 537.82 542.696 522.213 546.6C508.828 549.948 495.828 549.482 483.807 542.118C466.721 531.653 452.579 505.486 448.075 486.538C453.66 483.019 460.493 481.689 466.124 477.855C482.198 466.91 477.856 446.337 485.412 430.738C487.507 426.415 490.792 422.668 495.498 421.173C507.556 417.344 521.681 430.699 530.727 437.063C534.849 439.963 539.261 442.677 543.819 444.838C562.982 453.925 574.418 444.379 592.008 438.035C601.34 434.67 610.792 433.275 620.695 434.121C642.717 436 666.096 455.536 688.077 451.829C704.798 449.008 719.723 429.048 737.422 422.791L737.859 423.166C743.307 421.618 749.966 422.078 755.624 421.906L756.144 421.868C768.37 424.118 776.626 428.939 787.783 433.468C802.38 439.393 817.759 437.963 832.039 431.795C839.534 428.557 843.963 424.578 847.018 416.904Z"/><path fill="#0075BC" d="M847.018 416.904C839.645 408.018 830.834 416.958 821.81 412.274C814.398 408.427 806.669 398.068 804.191 390.174C802.637 385.225 803.352 379.549 805.799 375.001C807.238 372.327 809.399 369.758 812.42 368.911C822.444 366.102 824.762 386.569 829.688 391.866C836.057 398.715 847.055 399.323 855.318 402.733C859.603 404.502 863.654 407.334 867.616 409.722L867.986 410.237C868.02 433.467 868.1 456.795 865.649 479.923Q865.136 484.668 864.509 489.399Q863.882 494.13 863.142 498.844Q862.401 503.559 861.549 508.254Q860.696 512.95 859.731 517.624Q858.766 522.297 857.689 526.947Q856.612 531.596 855.424 536.218Q854.237 540.84 852.938 545.433Q851.64 550.025 850.232 554.585Q848.824 559.145 847.308 563.67Q845.791 568.195 844.167 572.682Q842.542 577.169 840.81 581.616Q839.079 586.063 837.241 590.468Q835.403 594.872 833.461 599.231Q831.518 603.59 829.471 607.901Q827.425 612.213 825.276 616.474Q823.127 620.735 820.876 624.943C815.827 634.383 810.704 643.895 804.492 652.637C803.126 652.159 801.761 651.529 800.347 652.213C795.106 654.746 796.117 663.978 791.466 667.53C786.236 671.525 775.612 669.578 773.751 677.26C771.919 684.82 775.939 686.891 770.427 694.618C763.633 698.745 757.822 706.9 752.449 712.758Q744.944 720.97 737.009 728.769C724.891 740.681 711.549 751.16 697.893 761.228C694.024 764.08 688.979 769.334 684.103 769.929Q688.395 762.38 692.222 754.585C695.23 748.35 698.829 737.302 703.548 732.541C706.076 729.991 709.719 729.027 712.928 727.628C732.648 719.035 718.973 702.085 723.533 691.023C728.311 679.431 748.693 676.782 754.998 659.76C762.961 638.263 751.114 616.163 761.742 591.877C774.755 562.142 811.688 549.092 822.905 520.632C825.304 514.546 827.727 505.737 825.032 499.477C821.204 496.717 806.125 500.779 800.782 500.989C795.541 501.195 790.101 500.563 785.177 498.692C764.285 490.752 750.958 456.857 742.409 437.459Q740.337 430.248 737.859 423.166C743.307 421.618 749.966 422.078 755.624 421.906L756.144 421.868C768.37 424.118 776.626 428.939 787.783 433.468C802.38 439.393 817.759 437.963 832.039 431.795C839.534 428.557 843.963 424.578 847.018 416.904Z"/><path fill="#61C64C" d="M847.018 416.904C852.009 424.193 856.254 432.077 854.663 441.256C852.851 451.71 843.69 459.662 835.331 465.252C824.509 472.489 806.076 481.517 792.602 478.687C787.606 477.637 784.512 473.011 781.969 468.915C774.91 457.545 768.449 445.684 762.176 433.865C760.188 430.12 757.37 425.913 756.144 421.868C768.37 424.118 776.626 428.939 787.783 433.468C802.38 439.393 817.759 437.963 832.039 431.795C839.534 428.557 843.963 424.578 847.018 416.904Z"/><path fill="#61C64C" d="M448.075 486.538C453.66 483.019 460.493 481.689 466.124 477.855C482.198 466.91 477.856 446.337 485.412 430.738C487.507 426.415 490.792 422.668 495.498 421.173C507.556 417.344 521.681 430.699 530.727 437.063C534.849 439.963 539.261 442.677 543.819 444.838C562.982 453.925 574.418 444.379 592.008 438.035C601.34 434.67 610.792 433.275 620.695 434.121C642.717 436 666.096 455.536 688.077 451.829C704.798 449.008 719.723 429.048 737.422 422.791L737.859 423.166Q740.337 430.248 742.409 437.459C741.195 443.383 744.34 450.648 745.749 456.341C755.176 494.43 751.599 518.086 725.339 548.572C718.524 545.166 711.629 544.785 704.426 547.167C692.925 550.97 683.778 561.216 678.527 571.823C673.681 581.613 673.054 590.82 676.557 601.156C683.674 622.157 699.911 636.8 688.71 660.12C682.873 672.273 670.125 678.697 661.074 688.089C652.477 697.01 648.605 709.132 641.476 719.094C635.694 727.175 627.136 733.351 622.735 742.445C619.424 749.287 619.116 756.29 617.992 763.648C611.269 748.69 612.065 731.443 608.791 715.563C606.104 707.799 601.148 700.751 599.499 692.646C595.321 672.107 615.95 658.825 614.02 639.202C612.529 624.039 598.166 614.855 591.659 602.052C584.257 587.489 591.477 572.651 588.184 557.684C586.975 552.191 584.031 547.974 579.226 545.034C575.652 542.847 571.38 541.469 567.311 540.539C550.836 536.773 537.82 542.696 522.213 546.6C508.828 549.948 495.828 549.482 483.807 542.118C466.721 531.653 452.579 505.486 448.075 486.538Z"/></svg> 