<?xml version="1.0" encoding="UTF-8" standalone="no" ?>
<!DOCTYPE svg PUBLIC "-//W3C//DTD SVG 1.1//EN" "http://www.w3.org/Graphics/SVG/1.1/DTD/svg11.dtd">
<svg xmlns="http://www.w3.org/2000/svg" xmlns:xlink="http://www.w3.org/1999/xlink" version="1.1" width="16" height="16" viewBox="0 0 16 16" xml:space="preserve">
<!-- Created with SVG Stack Editor - https://svgstack.com -->
<defs>
</defs>
<rect x="0" y="0" width="100%" height="100%" fill="transparent"></rect>
<g transform="matrix(0.02 0 0 0.02 8 8)"  >
<g style=""   >
		<g transform="matrix(2 0 0 2 0 0)" id="path_0"  >
<path style="stroke: none; stroke-width: 1; stroke-dasharray: none; stroke-linecap: butt; stroke-dashoffset: 0; stroke-linejoin: miter; stroke-miterlimit: 4; fill: rgb(50,59,89); fill-rule: nonzero; opacity: 1;"  transform=" translate(-256.09, -254.49)" d="M 310.182 52.403 C 348.24 51.1452 383.784 82.506 385.911 120.936 C 386.989 140.42 376.379 155.443 369.473 172.768 C 377.675 179.007 389.574 194.846 395.076 203.25 C 476.416 327.492 361.158 482.252 222.2 453.008 C 155.091 438.74 100.294 381.2 91.2789 312.961 C 86.0507 273.388 98.0853 227.53 122.436 195.876 C 151.575 157.997 191.347 134.918 239.249 128.705 C 238.831 87.0076 268.225 54.4369 310.182 52.403 Z M 143.368 184.512 C 147.4 187.453 151.831 189.718 156.114 192.257 C 164.806 198.649 162.368 203.95 158.69 212.792 C 165.703 216.819 163.02 221.661 165.211 227.97 C 169.259 233.74 179.764 233.179 178.443 242.508 C 176.785 254.219 150.497 250.602 144.527 268.363 C 142.823 273.433 142.641 281.767 137.173 284.4 C 128.068 288.783 117.074 279.149 114.662 292.941 C 112.868 303.208 124.04 294.552 131.383 303.275 C 134.862 307.409 134.669 311.861 131.516 315.962 C 135.468 318.309 139.592 320.084 143.368 322.76 C 150.197 313.815 162.514 319.392 170.979 322.108 C 190.708 328.438 180.901 328.824 191.404 336.912 C 198.296 342.219 213.741 342.319 215.285 354.14 C 215.93 359.073 211.916 362.307 210.216 366.486 C 210.79 379.359 208.305 378.618 201.139 386.86 C 197.091 391.515 187.919 404.493 187.067 410.171 C 190.426 411.4 193.59 413.152 196.923 414.47 C 239.747 431.394 288.367 427.449 327.086 401.659 C 366.104 375.668 381.515 345.032 390.181 301.38 C 388.181 297.637 387.411 293.447 385.525 289.696 C 380.61 279.917 367.565 280.215 358.4 277.119 C 361.547 280.279 367.691 283.502 364.625 288.779 C 362.57 292.318 352.018 300.172 348.459 303.132 C 339.61 310.491 350.485 305.163 352.619 313.746 C 349.688 327.098 334.184 336.062 332.928 341.311 C 331.982 345.264 336.854 351.448 335.79 357.15 C 334.598 363.544 329.218 368.652 326.155 374.23 C 323 379.976 321.297 386.541 317.948 392.143 C 312.609 401.073 301.541 399.718 296.507 391.506 C 293.786 387.067 282.542 363.892 282.487 359.635 C 282.442 356.088 284.556 352.657 285.363 349.229 L 285.464 348.792 C 283.738 346.025 281.095 343.963 279.48 341.154 C 276.556 336.066 280.206 330.986 279.446 325.738 C 278.57 319.696 261.092 325.936 257.797 326.618 C 248.967 328.443 238.653 318.189 234.602 311.689 C 231.475 306.67 230.594 292.407 232.081 287.458 C 233.656 282.22 245.584 267.901 249.228 265.51 C 252.661 263.258 256.945 261.866 260.749 260.327 C 274.475 254.772 277.404 254.909 290.449 263.555 C 301.876 271.128 307.017 261.987 317.69 269.396 C 317.429 267.2 314.1 264.293 313.38 261.436 C 303.364 261.035 296.57 260.557 288.875 253.672 C 275.057 241.309 274.648 251.043 259.967 255.985 C 243.586 261.499 244.365 243.569 249.738 233.889 C 252.677 228.593 257.543 226.782 263.086 225.21 C 258.213 216.948 269.08 211.129 275.317 205.8 C 273.798 203.034 272.141 200.282 270.333 197.694 C 267.523 201.128 262.672 210.162 258.712 211.418 C 255.508 212.434 252.215 208.945 253.691 205.807 C 254.954 203.122 263.338 192.406 265.584 189.36 C 257.822 176.933 250.097 163.653 244.669 150.025 C 243.113 145.59 241.803 141.248 240.787 136.658 C 212.642 138.839 179.881 154.15 158.105 171.053 C 153.019 175 147.169 179.247 143.368 184.512 Z M 310.182 241.996 C 311.127 243.629 312.278 245.145 313.38 246.675 C 334.705 218.106 358.129 180.54 371.673 148.226 C 376.2 137.427 378.789 131.568 377.685 119.424 C 376.066 101.622 366.218 85.6906 352.619 74.4357 C 350.748 74.8924 348.193 72.7375 346.52 71.9765 C 316.771 58.4436 282.251 69.9587 265.193 97.8559 C 245.162 130.616 266.268 165.95 282.905 194.945 C 286.946 201.988 290.731 209.072 295.048 215.964 L 305.479 232.976 C 306.676 234.927 310.937 239.704 310.182 241.996 Z" stroke-linecap="round" />
</g>
		<g transform="matrix(2 0 0 2 -282.67 98.45)" id="path_1"  >
<path style="stroke: none; stroke-width: 1; stroke-dasharray: none; stroke-linecap: butt; stroke-dashoffset: 0; stroke-linejoin: miter; stroke-miterlimit: 4; fill: rgb(58,193,188); fill-rule: nonzero; opacity: 1;"  transform=" translate(-114.76, -303.71)" d="M 106.394 298.597 C 110.529 307.115 116.492 305.978 124.312 307.201 C 122.112 307.753 119.881 308.23 117.696 308.832 C 113.307 306.879 108.955 304.399 105.199 301.38 C 106.483 301.375 107.985 302.771 109.129 303.37 C 107.785 301.941 106.416 300.625 106.394 298.597 Z" stroke-linecap="round" />
</g>
		<g transform="matrix(2 0 0 2 -239.5 -83.16)" id="path_2"  >
<path style="stroke: none; stroke-width: 1; stroke-dasharray: none; stroke-linecap: butt; stroke-dashoffset: 0; stroke-linejoin: miter; stroke-miterlimit: 4; fill: rgb(101,212,174); fill-rule: nonzero; opacity: 1;"  transform=" translate(-136.34, -212.91)" d="M 136.632 192.257 C 141.785 192.927 149.769 197.635 153.933 200.92 C 151.945 224.674 133.353 197.628 133.489 230.562 C 133.338 231.561 133.08 232.566 132.876 233.557 C 127.364 229.133 125.351 221.623 118.742 216.171 C 121.42 210.524 131.722 195.904 136.632 192.257 Z" stroke-linecap="round" />
</g>
		<g transform="matrix(2 0 0 2 49.77 -36.57)" id="path_3"  >
<path style="stroke: none; stroke-width: 1; stroke-dasharray: none; stroke-linecap: butt; stroke-dashoffset: 0; stroke-linejoin: miter; stroke-miterlimit: 4; fill: rgb(101,212,174); fill-rule: nonzero; opacity: 1;"  transform=" translate(-280.97, -236.2)" d="M 283.707 219.188 C 284.929 219.92 304.959 248.456 307.675 253.215 C 295.485 251.676 293.308 242.995 282.304 240.051 C 271.343 237.399 260.618 249.569 254.816 248.71 C 253.057 246.371 255.972 238.701 257.9 236.752 C 260.276 234.352 270.043 231.581 274 228.966 C 277.902 226.387 280.472 222.48 283.707 219.188 Z" stroke-linecap="round" />
</g>
		<g transform="matrix(2 0 0 2 -234.51 266.54)" id="path_4"  >
<path style="stroke: none; stroke-width: 1; stroke-dasharray: none; stroke-linecap: butt; stroke-dashoffset: 0; stroke-linejoin: miter; stroke-miterlimit: 4; fill: rgb(153,220,242); fill-rule: nonzero; opacity: 1;"  transform=" translate(-138.83, -387.76)" d="M 112.458 355.909 C 114.804 356.864 121.432 364.058 123.835 366.259 C 128.854 370.857 153.685 391.974 158.69 392.328 C 160.77 403.706 162.02 408.596 165.211 419.608 C 144.193 400.034 123.531 385.046 112.458 355.909 Z" stroke-linecap="round" />
</g>
		<g transform="matrix(2 0 0 2 132.99 157.39)" id="path_5"  >
<path style="stroke: none; stroke-width: 1; stroke-dasharray: none; stroke-linecap: butt; stroke-dashoffset: 0; stroke-linejoin: miter; stroke-miterlimit: 4; fill: rgb(58,193,188); fill-rule: nonzero; opacity: 1;"  transform=" translate(-322.58, -333.18)" d="M 311.573 275.591 C 317.138 277.854 319.355 288.858 321.622 293.924 C 326.137 304.013 334.108 310.649 343.62 315.962 C 337.17 325.816 322.45 334.412 324.744 345.379 C 326.076 351.747 329.772 353.231 325.583 359.732 C 322.332 364.779 319.526 368.761 316.973 374.308 C 314.001 380.765 307.898 402.375 301.544 382.672 C 305.415 382.796 306.719 381.823 308.496 378.257 C 316.18 362.837 320.684 357.292 315.674 342.012 C 310.762 327.029 332.99 324.959 328.591 313.745 C 326.782 309.133 322.719 305.664 320.587 301.151 C 317.082 293.731 314.735 283.583 311.573 275.591 Z" stroke-linecap="round" />
</g>
		<g transform="matrix(2 0 0 2 87.88 -206.74)" id="path_6"  >
<path style="stroke: none; stroke-width: 1; stroke-dasharray: none; stroke-linecap: butt; stroke-dashoffset: 0; stroke-linejoin: miter; stroke-miterlimit: 4; fill: rgb(250,118,117); fill-rule: nonzero; opacity: 1;"  transform=" translate(-300.03, -151.12)" d="M 310.182 241.996 C 290.711 214.186 253.643 164.094 248.341 134.44 C 242.323 100.779 267.151 67.0736 300.572 61.3657 C 321.401 57.8083 336.141 62.8538 352.619 74.4357 C 350.748 74.8924 348.193 72.7375 346.52 71.9765 C 316.771 58.4436 282.251 69.9587 265.193 97.8559 C 245.162 130.616 266.268 165.95 282.905 194.945 C 286.946 201.988 290.731 209.072 295.048 215.964 L 305.479 232.976 C 306.676 234.927 310.937 239.704 310.182 241.996 Z" stroke-linecap="round" />
</g>
		<g transform="matrix(2 0 0 2 -254.79 190.55)" id="path_7"  >
<path style="stroke: none; stroke-width: 1; stroke-dasharray: none; stroke-linecap: butt; stroke-dashoffset: 0; stroke-linejoin: miter; stroke-miterlimit: 4; fill: rgb(229,237,243); fill-rule: nonzero; opacity: 1;"  transform=" translate(-128.69, -349.76)" d="M 98.6959 307.201 C 102.972 309.598 107.013 312.394 111.255 314.849 C 119.603 319.68 130.669 325.522 139.36 329.799 C 129.139 345.588 135.923 359.685 148.661 371.599 C 151.287 374.055 154.159 376.134 156.495 378.899 C 158.246 382.375 158.158 388.347 158.69 392.328 C 153.685 391.974 128.854 370.857 123.835 366.259 C 121.432 364.058 114.804 356.864 112.458 355.909 C 104.945 341.809 100.489 323.039 98.6959 307.201 Z" stroke-linecap="round" />
</g>
		<g transform="matrix(2 0 0 2 255.41 -31.89)" id="path_8"  >
<path style="stroke: none; stroke-width: 1; stroke-dasharray: none; stroke-linecap: butt; stroke-dashoffset: 0; stroke-linejoin: miter; stroke-miterlimit: 4; fill: rgb(58,193,188); fill-rule: nonzero; opacity: 1;"  transform=" translate(-383.8, -238.55)" d="M 365.439 179.819 C 391.911 206.063 408.852 237.982 412.846 275.591 C 403.794 280.853 399.037 287.2 396.763 297.271 C 395.386 292.248 393.764 287.659 391.331 283.026 C 392.626 277.778 388.398 258.562 386.671 252.688 C 383.383 241.506 365.278 204.308 354.744 198.564 C 358.385 192.615 361.816 185.281 365.439 179.819 Z" stroke-linecap="round" />
</g>
		<g transform="matrix(2 0 0 2 -243.06 13.58)" id="path_9"  >
<path style="stroke: none; stroke-width: 1; stroke-dasharray: none; stroke-linecap: butt; stroke-dashoffset: 0; stroke-linejoin: miter; stroke-miterlimit: 4; fill: rgb(101,212,174); fill-rule: nonzero; opacity: 1;"  transform=" translate(-134.56, -261.28)" d="M 141.674 220.673 C 146.019 219.944 150.804 219.286 155.204 219.188 C 158.112 224.641 154.893 229.661 160.21 234.935 C 163.232 237.932 167.418 238.907 170.433 241.996 C 155.156 246.127 139.575 251.359 135.597 268.743 C 132.444 282.521 133.417 276.324 120.391 277.338 C 109.326 278.199 105.401 288.745 106.394 298.597 C 106.416 300.625 107.785 301.941 109.129 303.37 C 107.985 302.771 106.483 301.375 105.199 301.38 C 103.047 300.408 100.713 298.558 98.6959 297.271 C 98.37 278.822 103.686 239.376 115.385 223.787 C 119.547 228.774 129.154 248.659 138.245 239.2 C 142.284 234.998 141.669 226.144 141.674 220.673 Z" stroke-linecap="round" />
</g>
		<g transform="matrix(2 0 0 2 -162.28 245.84)" id="path_10"  >
<path style="stroke: none; stroke-width: 1; stroke-dasharray: none; stroke-linecap: butt; stroke-dashoffset: 0; stroke-linejoin: miter; stroke-miterlimit: 4; fill: rgb(101,212,174); fill-rule: nonzero; opacity: 1;"  transform=" translate(-174.95, -377.41)" d="M 152.494 325.794 C 156.097 325.504 173.84 331.167 177.559 333.186 C 181.429 335.287 182.465 340.397 185.89 343.125 C 192.523 348.406 202.595 347.956 207.633 355.909 C 197.326 367.905 204.888 367.361 201.31 374.545 C 199.982 377.209 196.891 379.211 195.012 381.546 C 187.752 390.567 178.534 401.499 179.791 413.811 C 179.993 418.034 181.863 424.463 182.494 429.033 C 170.244 418.791 167.836 403.548 166.267 388.511 C 164.699 373.495 164.66 375.073 153.781 365.011 C 147.801 359.48 140.6 350.544 142.611 341.842 C 143.488 338.046 148.889 328.024 152.494 325.794 Z" stroke-linecap="round" />
</g>
		<g transform="matrix(2 0 0 2 192.78 -9.03)" id="path_11"  >
<path style="stroke: none; stroke-width: 1; stroke-dasharray: none; stroke-linecap: butt; stroke-dashoffset: 0; stroke-linejoin: miter; stroke-miterlimit: 4; fill: rgb(101,212,174); fill-rule: nonzero; opacity: 1;"  transform=" translate(-352.48, -249.97)" d="M 354.744 198.564 C 365.278 204.308 383.383 241.506 386.671 252.688 C 388.398 258.562 392.626 277.778 391.331 283.026 C 384.042 273.277 371.263 272.127 360.296 269.072 C 355.515 267.741 350.188 265.636 345.249 265.275 C 341.022 264.966 338.607 269.859 341.116 273.234 C 344.278 277.486 351.802 281.968 356.081 286.325 C 350.406 291.654 343.591 296.513 337.47 301.38 C 327.157 294.221 327.557 280.124 317.69 269.396 C 317.429 267.2 314.1 264.293 313.38 261.436 C 319.457 261.47 316.731 256.991 318.497 253.65 C 319.639 251.489 321.432 249.393 322.856 247.399 C 334.165 231.553 344.503 215.116 354.744 198.564 Z" stroke-linecap="round" />
</g>
		<g transform="matrix(2 0 0 2 56.54 138.13)" id="path_12"  >
<path style="stroke: none; stroke-width: 1; stroke-dasharray: none; stroke-linecap: butt; stroke-dashoffset: 0; stroke-linejoin: miter; stroke-miterlimit: 4; fill: rgb(101,212,174); fill-rule: nonzero; opacity: 1;"  transform=" translate(-284.36, -323.55)" d="M 254.099 319.091 C 248.361 314.521 241.249 309.64 240.374 302.175 C 239.288 292.906 238.312 291.07 244.023 283.859 C 246.634 280.561 250.023 274.852 253.509 272.524 C 255.206 271.39 270.459 265.135 272.531 264.64 C 280.989 262.619 288.1 275.32 298.214 275.621 C 302.34 275.744 308.125 272.726 311.573 275.591 C 314.735 283.583 317.082 293.731 320.587 301.151 C 322.719 305.664 326.782 309.133 328.591 313.745 C 332.99 324.959 310.762 327.029 315.674 342.012 C 320.684 357.292 316.18 362.837 308.496 378.257 C 306.719 381.823 305.415 382.796 301.544 382.672 C 298.012 375.355 293.492 367.397 290.471 360.061 C 291.06 356.8 292.741 353.819 293.355 350.573 C 294.776 343.068 289.785 342.19 286.493 336.912 C 287.042 330.438 290.292 322.306 283.647 317.759 C 275.046 311.873 263.189 317.255 254.099 319.091 Z" stroke-linecap="round" />
</g>
		<g transform="matrix(2 0 0 2 88.66 223.97)" id="path_13"  >
<path style="stroke: none; stroke-width: 1; stroke-dasharray: none; stroke-linecap: butt; stroke-dashoffset: 0; stroke-linejoin: miter; stroke-miterlimit: 4; fill: rgb(153,220,242); fill-rule: nonzero; opacity: 1;"  transform=" translate(-300.42, -366.47)" d="M 390.181 301.38 C 391.597 304.66 395.108 312.97 398.389 314.19 C 408.528 317.961 399.041 294.55 413.77 284.867 C 413.786 295.073 413.58 304.991 412.016 315.106 C 396.11 417.999 284.37 476.466 191.35 434.206 C 189.563 426.288 188.996 418.04 187.067 410.171 C 190.426 411.4 193.59 413.152 196.923 414.47 C 239.747 431.394 288.367 427.449 327.086 401.659 C 366.104 375.668 381.515 345.032 390.181 301.38 Z" stroke-linecap="round" />
</g>
		<g transform="matrix(2 0 0 2 122.79 -195.99)" id="path_14"  >
<path style="stroke: none; stroke-width: 1; stroke-dasharray: none; stroke-linecap: butt; stroke-dashoffset: 0; stroke-linejoin: miter; stroke-miterlimit: 4; fill: rgb(242,79,82); fill-rule: nonzero; opacity: 1;"  transform=" translate(-317.49, -156.49)" d="M 310.182 241.996 C 310.937 239.704 306.676 234.927 305.479 232.976 L 295.048 215.964 C 290.731 209.072 286.946 201.988 282.905 194.945 C 266.268 165.95 245.162 130.616 265.193 97.8559 C 282.251 69.9587 316.771 58.4436 346.52 71.9765 C 348.193 72.7375 350.748 74.8924 352.619 74.4357 C 366.218 85.6906 376.066 101.622 377.685 119.424 C 378.789 131.568 376.2 137.427 371.673 148.226 C 358.129 180.54 334.705 218.106 313.38 246.675 C 312.278 245.145 311.127 243.629 310.182 241.996 Z M 310.182 89.8528 C 262.641 94.3197 266.824 164.611 316.185 161.022 C 335.736 159.628 350.118 141.672 348.591 122.373 C 347.145 104.101 329.158 86.9047 310.182 89.8528 Z" stroke-linecap="round" />
</g>
		<g transform="matrix(2 0 0 2 113.27 -258.3)" id="path_15"  >
<path style="stroke: none; stroke-width: 1; stroke-dasharray: none; stroke-linecap: butt; stroke-dashoffset: 0; stroke-linejoin: miter; stroke-miterlimit: 4; fill: rgb(50,59,89); fill-rule: nonzero; opacity: 1;"  transform=" translate(-312.72, -125.34)" d="M 310.182 89.8528 C 329.158 86.9047 347.145 104.101 348.591 122.373 C 350.118 141.672 335.736 159.628 316.185 161.022 C 266.824 164.611 262.641 94.3197 310.182 89.8528 Z M 310.182 97.8247 C 270.899 103.434 280.716 158.01 316.185 153.489 C 342.012 148.75 349.688 116.662 328.362 102.522 C 323.761 99.4709 315.755 96.5387 310.182 97.8247 Z" stroke-linecap="round" />
</g>
		<g transform="matrix(2 0 0 2 -7.53 52.38)" id="path_16"  >
<path style="stroke: none; stroke-width: 1; stroke-dasharray: none; stroke-linecap: butt; stroke-dashoffset: 0; stroke-linejoin: miter; stroke-miterlimit: 4; fill: rgb(229,237,243); fill-rule: nonzero; opacity: 1;"  transform=" translate(-252.33, -280.68)" d="M 143.368 184.512 C 147.169 179.247 153.019 175 158.105 171.053 C 179.881 154.15 212.642 138.839 240.787 136.658 C 241.803 141.248 243.113 145.59 244.669 150.025 C 250.097 163.653 257.822 176.933 265.584 189.36 C 263.338 192.406 254.954 203.122 253.691 205.807 C 252.215 208.945 255.508 212.434 258.712 211.418 C 262.672 210.162 267.523 201.128 270.333 197.694 C 272.141 200.282 273.798 203.034 275.317 205.8 C 269.08 211.129 258.213 216.948 263.086 225.21 C 257.543 226.782 252.677 228.593 249.738 233.889 C 244.365 243.569 243.586 261.499 259.967 255.985 C 274.648 251.043 275.057 241.309 288.875 253.672 C 296.57 260.557 303.364 261.035 313.38 261.436 C 314.1 264.293 317.429 267.2 317.69 269.396 C 307.017 261.987 301.876 271.128 290.449 263.555 C 277.404 254.909 274.475 254.772 260.749 260.327 C 256.945 261.866 252.661 263.258 249.228 265.51 C 245.584 267.901 233.656 282.22 232.081 287.458 C 230.594 292.407 231.475 306.67 234.602 311.689 C 238.653 318.189 248.967 328.443 257.797 326.618 C 261.092 325.936 278.57 319.696 279.446 325.738 C 280.206 330.986 276.556 336.066 279.48 341.154 C 281.095 343.963 283.738 346.025 285.464 348.792 L 285.363 349.229 C 284.556 352.657 282.442 356.088 282.487 359.635 C 282.542 363.892 293.786 387.067 296.507 391.506 C 301.541 399.718 312.609 401.073 317.948 392.143 C 321.297 386.541 323 379.976 326.155 374.23 C 329.218 368.652 334.598 363.544 335.79 357.15 C 336.854 351.448 331.982 345.264 332.928 341.311 C 334.184 336.062 349.688 327.098 352.619 313.746 C 350.485 305.163 339.61 310.491 348.459 303.132 C 352.018 300.172 362.57 292.318 364.625 288.779 C 367.691 283.502 361.547 280.279 358.4 277.119 C 367.565 280.215 380.61 279.917 385.525 289.696 C 387.411 293.447 388.181 297.637 390.181 301.38 C 381.515 345.032 366.104 375.668 327.086 401.659 C 288.367 427.449 239.747 431.394 196.923 414.47 C 193.59 413.152 190.426 411.4 187.067 410.171 C 187.919 404.493 197.091 391.515 201.139 386.86 C 208.305 378.618 210.79 379.359 210.216 366.486 C 211.916 362.307 215.93 359.073 215.285 354.14 C 213.741 342.319 198.296 342.219 191.404 336.912 C 180.901 328.824 190.708 328.438 170.979 322.108 C 162.514 319.392 150.197 313.815 143.368 322.76 C 139.592 320.084 135.468 318.309 131.516 315.962 C 134.669 311.861 134.862 307.409 131.383 303.275 C 124.04 294.552 112.868 303.208 114.662 292.941 C 117.074 279.149 128.068 288.783 137.173 284.4 C 142.641 281.767 142.823 273.433 144.527 268.363 C 150.497 250.602 176.785 254.219 178.443 242.508 C 179.764 233.179 169.259 233.74 165.211 227.97 C 163.02 221.661 165.703 216.819 158.69 212.792 C 162.368 203.95 164.806 198.649 156.114 192.257 C 151.831 189.718 147.4 187.453 143.368 184.512 Z M 143.368 184.512 C 147.4 187.453 151.831 189.718 156.114 192.257 C 158.853 190.817 163.387 192.474 165.211 194.659 C 166.827 203.448 168.167 209.653 174.595 216.321 C 182.602 224.625 199.068 226.93 203.132 213.449 C 204.049 210.407 204.375 206.931 206.471 204.411 C 211.332 198.566 223.462 198.568 223.394 184.98 C 223.385 183.126 223.537 178.868 222.2 177.516 C 225.214 158.696 212.863 165.456 204.338 161.022 C 198.284 159.487 214.392 154.233 215.634 153.829 C 226.034 150.452 234.043 147.97 244.669 150.025 C 243.113 145.59 241.803 141.248 240.787 136.658 C 212.642 138.839 179.881 154.15 158.105 171.053 C 153.019 175 147.169 179.247 143.368 184.512 Z" stroke-linecap="round" />
</g>
		<g transform="matrix(2 0 0 2 -127.46 -134.12)" id="path_17"  >
<path style="stroke: none; stroke-width: 1; stroke-dasharray: none; stroke-linecap: butt; stroke-dashoffset: 0; stroke-linejoin: miter; stroke-miterlimit: 4; fill: rgb(50,59,89); fill-rule: nonzero; opacity: 1;"  transform=" translate(-192.36, -187.43)" d="M 175.51 186.821 C 169.718 182.335 155.194 181.676 165.876 171.503 C 177.186 160.733 189.844 160.734 204.338 161.022 C 212.863 165.456 225.214 158.696 222.2 177.516 C 215.216 192.682 206.311 189.488 199.142 197.423 C 193.163 204.039 195.096 221.886 181.577 209.83 C 173.946 203.026 176.101 195.75 175.539 187.224 L 175.51 186.821 Z" stroke-linecap="round" />
</g>
		<g transform="matrix(2 0 0 2 -125.47 -136.36)" id="path_18"  >
<path style="stroke: none; stroke-width: 1; stroke-dasharray: none; stroke-linecap: butt; stroke-dashoffset: 0; stroke-linejoin: miter; stroke-miterlimit: 4; fill: rgb(101,212,174); fill-rule: nonzero; opacity: 1;"  transform=" translate(-193.35, -186.31)" d="M 192.735 169.037 C 199.805 168.184 207.282 169.755 214.206 171.156 C 215.977 184.001 196.549 183.693 189.263 197.694 C 188.289 199.659 187.697 201.73 187.067 203.822 C 177.54 192.81 192.84 182.837 172.387 176.354 C 178.001 171.742 185.543 169.331 192.735 169.037 Z" stroke-linecap="round" />
</g>
</g>
</g>
<g transform="matrix(0.02 0 0 0.02 8 8)"  >
<g style=""   >
		<g transform="matrix(2 0 0 2 0 0)" id="path_0"  >
<path style="stroke: none; stroke-width: 1; stroke-dasharray: none; stroke-linecap: butt; stroke-dashoffset: 0; stroke-linejoin: miter; stroke-miterlimit: 4; fill: rgb(50,59,89); fill-rule: nonzero; opacity: 1;"  transform=" translate(-256.09, -254.49)" d="M 310.182 52.403 C 348.24 51.1452 383.784 82.506 385.911 120.936 C 386.989 140.42 376.379 155.443 369.473 172.768 C 377.675 179.007 389.574 194.846 395.076 203.25 C 476.416 327.492 361.158 482.252 222.2 453.008 C 155.091 438.74 100.294 381.2 91.2789 312.961 C 86.0507 273.388 98.0853 227.53 122.436 195.876 C 151.575 157.997 191.347 134.918 239.249 128.705 C 238.831 87.0076 268.225 54.4369 310.182 52.403 Z M 143.368 184.512 C 147.4 187.453 151.831 189.718 156.114 192.257 C 164.806 198.649 162.368 203.95 158.69 212.792 C 165.703 216.819 163.02 221.661 165.211 227.97 C 169.259 233.74 179.764 233.179 178.443 242.508 C 176.785 254.219 150.497 250.602 144.527 268.363 C 142.823 273.433 142.641 281.767 137.173 284.4 C 128.068 288.783 117.074 279.149 114.662 292.941 C 112.868 303.208 124.04 294.552 131.383 303.275 C 134.862 307.409 134.669 311.861 131.516 315.962 C 135.468 318.309 139.592 320.084 143.368 322.76 C 150.197 313.815 162.514 319.392 170.979 322.108 C 190.708 328.438 180.901 328.824 191.404 336.912 C 198.296 342.219 213.741 342.319 215.285 354.14 C 215.93 359.073 211.916 362.307 210.216 366.486 C 210.79 379.359 208.305 378.618 201.139 386.86 C 197.091 391.515 187.919 404.493 187.067 410.171 C 190.426 411.4 193.59 413.152 196.923 414.47 C 239.747 431.394 288.367 427.449 327.086 401.659 C 366.104 375.668 381.515 345.032 390.181 301.38 C 388.181 297.637 387.411 293.447 385.525 289.696 C 380.61 279.917 367.565 280.215 358.4 277.119 C 361.547 280.279 367.691 283.502 364.625 288.779 C 362.57 292.318 352.018 300.172 348.459 303.132 C 339.61 310.491 350.485 305.163 352.619 313.746 C 349.688 327.098 334.184 336.062 332.928 341.311 C 331.982 345.264 336.854 351.448 335.79 357.15 C 334.598 363.544 329.218 368.652 326.155 374.23 C 323 379.976 321.297 386.541 317.948 392.143 C 312.609 401.073 301.541 399.718 296.507 391.506 C 293.786 387.067 282.542 363.892 282.487 359.635 C 282.442 356.088 284.556 352.657 285.363 349.229 L 285.464 348.792 C 283.738 346.025 281.095 343.963 279.48 341.154 C 276.556 336.066 280.206 330.986 279.446 325.738 C 278.57 319.696 261.092 325.936 257.797 326.618 C 248.967 328.443 238.653 318.189 234.602 311.689 C 231.475 306.67 230.594 292.407 232.081 287.458 C 233.656 282.22 245.584 267.901 249.228 265.51 C 252.661 263.258 256.945 261.866 260.749 260.327 C 274.475 254.772 277.404 254.909 290.449 263.555 C 301.876 271.128 307.017 261.987 317.69 269.396 C 317.429 267.2 314.1 264.293 313.38 261.436 C 303.364 261.035 296.57 260.557 288.875 253.672 C 275.057 241.309 274.648 251.043 259.967 255.985 C 243.586 261.499 244.365 243.569 249.738 233.889 C 252.677 228.593 257.543 226.782 263.086 225.21 C 258.213 216.948 269.08 211.129 275.317 205.8 C 273.798 203.034 272.141 200.282 270.333 197.694 C 267.523 201.128 262.672 210.162 258.712 211.418 C 255.508 212.434 252.215 208.945 253.691 205.807 C 254.954 203.122 263.338 192.406 265.584 189.36 C 257.822 176.933 250.097 163.653 244.669 150.025 C 243.113 145.59 241.803 141.248 240.787 136.658 C 212.642 138.839 179.881 154.15 158.105 171.053 C 153.019 175 147.169 179.247 143.368 184.512 Z M 310.182 241.996 C 311.127 243.629 312.278 245.145 313.38 246.675 C 334.705 218.106 358.129 180.54 371.673 148.226 C 376.2 137.427 378.789 131.568 377.685 119.424 C 376.066 101.622 366.218 85.6906 352.619 74.4357 C 350.748 74.8924 348.193 72.7375 346.52 71.9765 C 316.771 58.4436 282.251 69.9587 265.193 97.8559 C 245.162 130.616 266.268 165.95 282.905 194.945 C 286.946 201.988 290.731 209.072 295.048 215.964 L 305.479 232.976 C 306.676 234.927 310.937 239.704 310.182 241.996 Z" stroke-linecap="round" />
</g>
		<g transform="matrix(2 0 0 2 -282.67 98.45)" id="path_1"  >
<path style="stroke: none; stroke-width: 1; stroke-dasharray: none; stroke-linecap: butt; stroke-dashoffset: 0; stroke-linejoin: miter; stroke-miterlimit: 4; fill: rgb(58,193,188); fill-rule: nonzero; opacity: 1;"  transform=" translate(-114.76, -303.71)" d="M 106.394 298.597 C 110.529 307.115 116.492 305.978 124.312 307.201 C 122.112 307.753 119.881 308.23 117.696 308.832 C 113.307 306.879 108.955 304.399 105.199 301.38 C 106.483 301.375 107.985 302.771 109.129 303.37 C 107.785 301.941 106.416 300.625 106.394 298.597 Z" stroke-linecap="round" />
</g>
		<g transform="matrix(2 0 0 2 -239.5 -83.16)" id="path_2"  >
<path style="stroke: none; stroke-width: 1; stroke-dasharray: none; stroke-linecap: butt; stroke-dashoffset: 0; stroke-linejoin: miter; stroke-miterlimit: 4; fill: rgb(101,212,174); fill-rule: nonzero; opacity: 1;"  transform=" translate(-136.34, -212.91)" d="M 136.632 192.257 C 141.785 192.927 149.769 197.635 153.933 200.92 C 151.945 224.674 133.353 197.628 133.489 230.562 C 133.338 231.561 133.08 232.566 132.876 233.557 C 127.364 229.133 125.351 221.623 118.742 216.171 C 121.42 210.524 131.722 195.904 136.632 192.257 Z" stroke-linecap="round" />
</g>
		<g transform="matrix(2 0 0 2 49.77 -36.57)" id="path_3"  >
<path style="stroke: none; stroke-width: 1; stroke-dasharray: none; stroke-linecap: butt; stroke-dashoffset: 0; stroke-linejoin: miter; stroke-miterlimit: 4; fill: rgb(101,212,174); fill-rule: nonzero; opacity: 1;"  transform=" translate(-280.97, -236.2)" d="M 283.707 219.188 C 284.929 219.92 304.959 248.456 307.675 253.215 C 295.485 251.676 293.308 242.995 282.304 240.051 C 271.343 237.399 260.618 249.569 254.816 248.71 C 253.057 246.371 255.972 238.701 257.9 236.752 C 260.276 234.352 270.043 231.581 274 228.966 C 277.902 226.387 280.472 222.48 283.707 219.188 Z" stroke-linecap="round" />
</g>
		<g transform="matrix(2 0 0 2 -234.51 266.54)" id="path_4"  >
<path style="stroke: none; stroke-width: 1; stroke-dasharray: none; stroke-linecap: butt; stroke-dashoffset: 0; stroke-linejoin: miter; stroke-miterlimit: 4; fill: rgb(153,220,242); fill-rule: nonzero; opacity: 1;"  transform=" translate(-138.83, -387.76)" d="M 112.458 355.909 C 114.804 356.864 121.432 364.058 123.835 366.259 C 128.854 370.857 153.685 391.974 158.69 392.328 C 160.77 403.706 162.02 408.596 165.211 419.608 C 144.193 400.034 123.531 385.046 112.458 355.909 Z" stroke-linecap="round" />
</g>
		<g transform="matrix(2 0 0 2 132.99 157.39)" id="path_5"  >
<path style="stroke: none; stroke-width: 1; stroke-dasharray: none; stroke-linecap: butt; stroke-dashoffset: 0; stroke-linejoin: miter; stroke-miterlimit: 4; fill: rgb(58,193,188); fill-rule: nonzero; opacity: 1;"  transform=" translate(-322.58, -333.18)" d="M 311.573 275.591 C 317.138 277.854 319.355 288.858 321.622 293.924 C 326.137 304.013 334.108 310.649 343.62 315.962 C 337.17 325.816 322.45 334.412 324.744 345.379 C 326.076 351.747 329.772 353.231 325.583 359.732 C 322.332 364.779 319.526 368.761 316.973 374.308 C 314.001 380.765 307.898 402.375 301.544 382.672 C 305.415 382.796 306.719 381.823 308.496 378.257 C 316.18 362.837 320.684 357.292 315.674 342.012 C 310.762 327.029 332.99 324.959 328.591 313.745 C 326.782 309.133 322.719 305.664 320.587 301.151 C 317.082 293.731 314.735 283.583 311.573 275.591 Z" stroke-linecap="round" />
</g>
		<g transform="matrix(2 0 0 2 87.88 -206.74)" id="path_6"  >
<path style="stroke: none; stroke-width: 1; stroke-dasharray: none; stroke-linecap: butt; stroke-dashoffset: 0; stroke-linejoin: miter; stroke-miterlimit: 4; fill: rgb(250,118,117); fill-rule: nonzero; opacity: 1;"  transform=" translate(-300.03, -151.12)" d="M 310.182 241.996 C 290.711 214.186 253.643 164.094 248.341 134.44 C 242.323 100.779 267.151 67.0736 300.572 61.3657 C 321.401 57.8083 336.141 62.8538 352.619 74.4357 C 350.748 74.8924 348.193 72.7375 346.52 71.9765 C 316.771 58.4436 282.251 69.9587 265.193 97.8559 C 245.162 130.616 266.268 165.95 282.905 194.945 C 286.946 201.988 290.731 209.072 295.048 215.964 L 305.479 232.976 C 306.676 234.927 310.937 239.704 310.182 241.996 Z" stroke-linecap="round" />
</g>
		<g transform="matrix(2 0 0 2 -254.79 190.55)" id="path_7"  >
<path style="stroke: none; stroke-width: 1; stroke-dasharray: none; stroke-linecap: butt; stroke-dashoffset: 0; stroke-linejoin: miter; stroke-miterlimit: 4; fill: rgb(229,237,243); fill-rule: nonzero; opacity: 1;"  transform=" translate(-128.69, -349.76)" d="M 98.6959 307.201 C 102.972 309.598 107.013 312.394 111.255 314.849 C 119.603 319.68 130.669 325.522 139.36 329.799 C 129.139 345.588 135.923 359.685 148.661 371.599 C 151.287 374.055 154.159 376.134 156.495 378.899 C 158.246 382.375 158.158 388.347 158.69 392.328 C 153.685 391.974 128.854 370.857 123.835 366.259 C 121.432 364.058 114.804 356.864 112.458 355.909 C 104.945 341.809 100.489 323.039 98.6959 307.201 Z" stroke-linecap="round" />
</g>
		<g transform="matrix(2 0 0 2 255.41 -31.89)" id="path_8"  >
<path style="stroke: none; stroke-width: 1; stroke-dasharray: none; stroke-linecap: butt; stroke-dashoffset: 0; stroke-linejoin: miter; stroke-miterlimit: 4; fill: rgb(58,193,188); fill-rule: nonzero; opacity: 1;"  transform=" translate(-383.8, -238.55)" d="M 365.439 179.819 C 391.911 206.063 408.852 237.982 412.846 275.591 C 403.794 280.853 399.037 287.2 396.763 297.271 C 395.386 292.248 393.764 287.659 391.331 283.026 C 392.626 277.778 388.398 258.562 386.671 252.688 C 383.383 241.506 365.278 204.308 354.744 198.564 C 358.385 192.615 361.816 185.281 365.439 179.819 Z" stroke-linecap="round" />
</g>
		<g transform="matrix(2 0 0 2 -243.06 13.58)" id="path_9"  >
<path style="stroke: none; stroke-width: 1; stroke-dasharray: none; stroke-linecap: butt; stroke-dashoffset: 0; stroke-linejoin: miter; stroke-miterlimit: 4; fill: rgb(101,212,174); fill-rule: nonzero; opacity: 1;"  transform=" translate(-134.56, -261.28)" d="M 141.674 220.673 C 146.019 219.944 150.804 219.286 155.204 219.188 C 158.112 224.641 154.893 229.661 160.21 234.935 C 163.232 237.932 167.418 238.907 170.433 241.996 C 155.156 246.127 139.575 251.359 135.597 268.743 C 132.444 282.521 133.417 276.324 120.391 277.338 C 109.326 278.199 105.401 288.745 106.394 298.597 C 106.416 300.625 107.785 301.941 109.129 303.37 C 107.985 302.771 106.483 301.375 105.199 301.38 C 103.047 300.408 100.713 298.558 98.6959 297.271 C 98.37 278.822 103.686 239.376 115.385 223.787 C 119.547 228.774 129.154 248.659 138.245 239.2 C 142.284 234.998 141.669 226.144 141.674 220.673 Z" stroke-linecap="round" />
</g>
		<g transform="matrix(2 0 0 2 -162.28 245.84)" id="path_10"  >
<path style="stroke: none; stroke-width: 1; stroke-dasharray: none; stroke-linecap: butt; stroke-dashoffset: 0; stroke-linejoin: miter; stroke-miterlimit: 4; fill: rgb(101,212,174); fill-rule: nonzero; opacity: 1;"  transform=" translate(-174.95, -377.41)" d="M 152.494 325.794 C 156.097 325.504 173.84 331.167 177.559 333.186 C 181.429 335.287 182.465 340.397 185.89 343.125 C 192.523 348.406 202.595 347.956 207.633 355.909 C 197.326 367.905 204.888 367.361 201.31 374.545 C 199.982 377.209 196.891 379.211 195.012 381.546 C 187.752 390.567 178.534 401.499 179.791 413.811 C 179.993 418.034 181.863 424.463 182.494 429.033 C 170.244 418.791 167.836 403.548 166.267 388.511 C 164.699 373.495 164.66 375.073 153.781 365.011 C 147.801 359.48 140.6 350.544 142.611 341.842 C 143.488 338.046 148.889 328.024 152.494 325.794 Z" stroke-linecap="round" />
</g>
		<g transform="matrix(2 0 0 2 192.78 -9.03)" id="path_11"  >
<path style="stroke: none; stroke-width: 1; stroke-dasharray: none; stroke-linecap: butt; stroke-dashoffset: 0; stroke-linejoin: miter; stroke-miterlimit: 4; fill: rgb(101,212,174); fill-rule: nonzero; opacity: 1;"  transform=" translate(-352.48, -249.97)" d="M 354.744 198.564 C 365.278 204.308 383.383 241.506 386.671 252.688 C 388.398 258.562 392.626 277.778 391.331 283.026 C 384.042 273.277 371.263 272.127 360.296 269.072 C 355.515 267.741 350.188 265.636 345.249 265.275 C 341.022 264.966 338.607 269.859 341.116 273.234 C 344.278 277.486 351.802 281.968 356.081 286.325 C 350.406 291.654 343.591 296.513 337.47 301.38 C 327.157 294.221 327.557 280.124 317.69 269.396 C 317.429 267.2 314.1 264.293 313.38 261.436 C 319.457 261.47 316.731 256.991 318.497 253.65 C 319.639 251.489 321.432 249.393 322.856 247.399 C 334.165 231.553 344.503 215.116 354.744 198.564 Z" stroke-linecap="round" />
</g>
		<g transform="matrix(2 0 0 2 56.54 138.13)" id="path_12"  >
<path style="stroke: none; stroke-width: 1; stroke-dasharray: none; stroke-linecap: butt; stroke-dashoffset: 0; stroke-linejoin: miter; stroke-miterlimit: 4; fill: rgb(101,212,174); fill-rule: nonzero; opacity: 1;"  transform=" translate(-284.36, -323.55)" d="M 254.099 319.091 C 248.361 314.521 241.249 309.64 240.374 302.175 C 239.288 292.906 238.312 291.07 244.023 283.859 C 246.634 280.561 250.023 274.852 253.509 272.524 C 255.206 271.39 270.459 265.135 272.531 264.64 C 280.989 262.619 288.1 275.32 298.214 275.621 C 302.34 275.744 308.125 272.726 311.573 275.591 C 314.735 283.583 317.082 293.731 320.587 301.151 C 322.719 305.664 326.782 309.133 328.591 313.745 C 332.99 324.959 310.762 327.029 315.674 342.012 C 320.684 357.292 316.18 362.837 308.496 378.257 C 306.719 381.823 305.415 382.796 301.544 382.672 C 298.012 375.355 293.492 367.397 290.471 360.061 C 291.06 356.8 292.741 353.819 293.355 350.573 C 294.776 343.068 289.785 342.19 286.493 336.912 C 287.042 330.438 290.292 322.306 283.647 317.759 C 275.046 311.873 263.189 317.255 254.099 319.091 Z" stroke-linecap="round" />
</g>
		<g transform="matrix(2 0 0 2 88.66 223.97)" id="path_13"  >
<path style="stroke: none; stroke-width: 1; stroke-dasharray: none; stroke-linecap: butt; stroke-dashoffset: 0; stroke-linejoin: miter; stroke-miterlimit: 4; fill: rgb(153,220,242); fill-rule: nonzero; opacity: 1;"  transform=" translate(-300.42, -366.47)" d="M 390.181 301.38 C 391.597 304.66 395.108 312.97 398.389 314.19 C 408.528 317.961 399.041 294.55 413.77 284.867 C 413.786 295.073 413.58 304.991 412.016 315.106 C 396.11 417.999 284.37 476.466 191.35 434.206 C 189.563 426.288 188.996 418.04 187.067 410.171 C 190.426 411.4 193.59 413.152 196.923 414.47 C 239.747 431.394 288.367 427.449 327.086 401.659 C 366.104 375.668 381.515 345.032 390.181 301.38 Z" stroke-linecap="round" />
</g>
		<g transform="matrix(2 0 0 2 122.79 -195.99)" id="path_14"  >
<path style="stroke: none; stroke-width: 1; stroke-dasharray: none; stroke-linecap: butt; stroke-dashoffset: 0; stroke-linejoin: miter; stroke-miterlimit: 4; fill: rgb(242,79,82); fill-rule: nonzero; opacity: 1;"  transform=" translate(-317.49, -156.49)" d="M 310.182 241.996 C 310.937 239.704 306.676 234.927 305.479 232.976 L 295.048 215.964 C 290.731 209.072 286.946 201.988 282.905 194.945 C 266.268 165.95 245.162 130.616 265.193 97.8559 C 282.251 69.9587 316.771 58.4436 346.52 71.9765 C 348.193 72.7375 350.748 74.8924 352.619 74.4357 C 366.218 85.6906 376.066 101.622 377.685 119.424 C 378.789 131.568 376.2 137.427 371.673 148.226 C 358.129 180.54 334.705 218.106 313.38 246.675 C 312.278 245.145 311.127 243.629 310.182 241.996 Z M 310.182 89.8528 C 262.641 94.3197 266.824 164.611 316.185 161.022 C 335.736 159.628 350.118 141.672 348.591 122.373 C 347.145 104.101 329.158 86.9047 310.182 89.8528 Z" stroke-linecap="round" />
</g>
		<g transform="matrix(2 0 0 2 113.27 -258.3)" id="path_15"  >
<path style="stroke: none; stroke-width: 1; stroke-dasharray: none; stroke-linecap: butt; stroke-dashoffset: 0; stroke-linejoin: miter; stroke-miterlimit: 4; fill: rgb(50,59,89); fill-rule: nonzero; opacity: 1;"  transform=" translate(-312.72, -125.34)" d="M 310.182 89.8528 C 329.158 86.9047 347.145 104.101 348.591 122.373 C 350.118 141.672 335.736 159.628 316.185 161.022 C 266.824 164.611 262.641 94.3197 310.182 89.8528 Z M 310.182 97.8247 C 270.899 103.434 280.716 158.01 316.185 153.489 C 342.012 148.75 349.688 116.662 328.362 102.522 C 323.761 99.4709 315.755 96.5387 310.182 97.8247 Z" stroke-linecap="round" />
</g>
		<g transform="matrix(2 0 0 2 -7.53 52.38)" id="path_16"  >
<path style="stroke: none; stroke-width: 1; stroke-dasharray: none; stroke-linecap: butt; stroke-dashoffset: 0; stroke-linejoin: miter; stroke-miterlimit: 4; fill: rgb(229,237,243); fill-rule: nonzero; opacity: 1;"  transform=" translate(-252.33, -280.68)" d="M 143.368 184.512 C 147.169 179.247 153.019 175 158.105 171.053 C 179.881 154.15 212.642 138.839 240.787 136.658 C 241.803 141.248 243.113 145.59 244.669 150.025 C 250.097 163.653 257.822 176.933 265.584 189.36 C 263.338 192.406 254.954 203.122 253.691 205.807 C 252.215 208.945 255.508 212.434 258.712 211.418 C 262.672 210.162 267.523 201.128 270.333 197.694 C 272.141 200.282 273.798 203.034 275.317 205.8 C 269.08 211.129 258.213 216.948 263.086 225.21 C 257.543 226.782 252.677 228.593 249.738 233.889 C 244.365 243.569 243.586 261.499 259.967 255.985 C 274.648 251.043 275.057 241.309 288.875 253.672 C 296.57 260.557 303.364 261.035 313.38 261.436 C 314.1 264.293 317.429 267.2 317.69 269.396 C 307.017 261.987 301.876 271.128 290.449 263.555 C 277.404 254.909 274.475 254.772 260.749 260.327 C 256.945 261.866 252.661 263.258 249.228 265.51 C 245.584 267.901 233.656 282.22 232.081 287.458 C 230.594 292.407 231.475 306.67 234.602 311.689 C 238.653 318.189 248.967 328.443 257.797 326.618 C 261.092 325.936 278.57 319.696 279.446 325.738 C 280.206 330.986 276.556 336.066 279.48 341.154 C 281.095 343.963 283.738 346.025 285.464 348.792 L 285.363 349.229 C 284.556 352.657 282.442 356.088 282.487 359.635 C 282.542 363.892 293.786 387.067 296.507 391.506 C 301.541 399.718 312.609 401.073 317.948 392.143 C 321.297 386.541 323 379.976 326.155 374.23 C 329.218 368.652 334.598 363.544 335.79 357.15 C 336.854 351.448 331.982 345.264 332.928 341.311 C 334.184 336.062 349.688 327.098 352.619 313.746 C 350.485 305.163 339.61 310.491 348.459 303.132 C 352.018 300.172 362.57 292.318 364.625 288.779 C 367.691 283.502 361.547 280.279 358.4 277.119 C 367.565 280.215 380.61 279.917 385.525 289.696 C 387.411 293.447 388.181 297.637 390.181 301.38 C 381.515 345.032 366.104 375.668 327.086 401.659 C 288.367 427.449 239.747 431.394 196.923 414.47 C 193.59 413.152 190.426 411.4 187.067 410.171 C 187.919 404.493 197.091 391.515 201.139 386.86 C 208.305 378.618 210.79 379.359 210.216 366.486 C 211.916 362.307 215.93 359.073 215.285 354.14 C 213.741 342.319 198.296 342.219 191.404 336.912 C 180.901 328.824 190.708 328.438 170.979 322.108 C 162.514 319.392 150.197 313.815 143.368 322.76 C 139.592 320.084 135.468 318.309 131.516 315.962 C 134.669 311.861 134.862 307.409 131.383 303.275 C 124.04 294.552 112.868 303.208 114.662 292.941 C 117.074 279.149 128.068 288.783 137.173 284.4 C 142.641 281.767 142.823 273.433 144.527 268.363 C 150.497 250.602 176.785 254.219 178.443 242.508 C 179.764 233.179 169.259 233.74 165.211 227.97 C 163.02 221.661 165.703 216.819 158.69 212.792 C 162.368 203.95 164.806 198.649 156.114 192.257 C 151.831 189.718 147.4 187.453 143.368 184.512 Z M 143.368 184.512 C 147.4 187.453 151.831 189.718 156.114 192.257 C 158.853 190.817 163.387 192.474 165.211 194.659 C 166.827 203.448 168.167 209.653 174.595 216.321 C 182.602 224.625 199.068 226.93 203.132 213.449 C 204.049 210.407 204.375 206.931 206.471 204.411 C 211.332 198.566 223.462 198.568 223.394 184.98 C 223.385 183.126 223.537 178.868 222.2 177.516 C 225.214 158.696 212.863 165.456 204.338 161.022 C 198.284 159.487 214.392 154.233 215.634 153.829 C 226.034 150.452 234.043 147.97 244.669 150.025 C 243.113 145.59 241.803 141.248 240.787 136.658 C 212.642 138.839 179.881 154.15 158.105 171.053 C 153.019 175 147.169 179.247 143.368 184.512 Z" stroke-linecap="round" />
</g>
		<g transform="matrix(2 0 0 2 -127.46 -134.12)" id="path_17"  >
<path style="stroke: none; stroke-width: 1; stroke-dasharray: none; stroke-linecap: butt; stroke-dashoffset: 0; stroke-linejoin: miter; stroke-miterlimit: 4; fill: rgb(50,59,89); fill-rule: nonzero; opacity: 1;"  transform=" translate(-192.36, -187.43)" d="M 175.51 186.821 C 169.718 182.335 155.194 181.676 165.876 171.503 C 177.186 160.733 189.844 160.734 204.338 161.022 C 212.863 165.456 225.214 158.696 222.2 177.516 C 215.216 192.682 206.311 189.488 199.142 197.423 C 193.163 204.039 195.096 221.886 181.577 209.83 C 173.946 203.026 176.101 195.75 175.539 187.224 L 175.51 186.821 Z" stroke-linecap="round" />
</g>
		<g transform="matrix(2 0 0 2 -125.47 -136.36)" id="path_18"  >
<path style="stroke: none; stroke-width: 1; stroke-dasharray: none; stroke-linecap: butt; stroke-dashoffset: 0; stroke-linejoin: miter; stroke-miterlimit: 4; fill: rgb(101,212,174); fill-rule: nonzero; opacity: 1;"  transform=" translate(-193.35, -186.31)" d="M 192.735 169.037 C 199.805 168.184 207.282 169.755 214.206 171.156 C 215.977 184.001 196.549 183.693 189.263 197.694 C 188.289 199.659 187.697 201.73 187.067 203.822 C 177.54 192.81 192.84 182.837 172.387 176.354 C 178.001 171.742 185.543 169.331 192.735 169.037 Z" stroke-linecap="round" />
</g>
</g>
</g>
</svg>